<svg xmlns="http://www.w3.org/2000/svg" viewBox="0 0 420 320" width="420" height="320">
  <g fill="none" stroke-linecap="round" stroke-linejoin="round">
    <g stroke="#1C1917" stroke-width="0.6" stroke-dasharray="3 5">
      <path d="M80 62 L168 180"/>
      <path d="M80 62 L224 80"/>
      <path d="M244 90 L340 176"/>
      <path d="M170 190 L62 214"/>
      <path d="M264 80 L296 46"/>
      <path d="M188 180 L330 180"/>
    </g>
    <g stroke="#B45309" stroke-width="1.1">
      <circle cx="80" cy="62" r="11"/>
      <path d="M72 54 L88 54 M72 70 L88 70 M80 48 L80 76"/>
      <path d="M70 62 L64 62 M90 62 L96 62" stroke-width="0.8"/>
    </g>
    <g stroke="#1C1917" stroke-width="1.1">
      <rect x="220" y="72" width="44" height="16" rx="1.5"/>
      <path d="M228 92 L228 100 M238 92 L238 100 M248 92 L248 100 M256 92 L256 100" stroke-width="0.8"/>
      <circle cx="226" cy="80" r="0.8" fill="#1C1917"/>
      <circle cx="234" cy="80" r="0.8" fill="#1C1917"/>
      <circle cx="242" cy="80" r="0.8" fill="#1C1917"/>
      <circle cx="250" cy="80" r="0.8" fill="#1C1917"/>
      <circle cx="258" cy="80" r="0.8" fill="#1C1917"/>
    </g>
    <g stroke="#1C1917" stroke-width="1">
      <rect x="326" y="162" width="28" height="20" rx="1"/>
      <path d="M336 184 L344 184 M340 182 L340 190 M330 190 L350 190" stroke-width="0.8"/>
    </g>
    <g stroke="#1C1917" stroke-width="1">
      <rect x="48" y="200" width="28" height="9"/>
      <rect x="48" y="212" width="28" height="9"/>
      <rect x="48" y="224" width="28" height="9"/>
      <circle cx="70" cy="204.5" r="0.9" fill="#1C1917"/>
      <circle cx="70" cy="216.5" r="0.9" fill="#1C1917"/>
      <circle cx="70" cy="228.5" r="0.9" fill="#1C1917"/>
    </g>
    <g stroke="#1C1917" stroke-width="1">
      <rect x="158" y="182" width="26" height="8" rx="2"/>
      <path d="M164 178 Q171 170 178 178 M160 174 Q171 162 182 174" stroke-width="0.7"/>
    </g>
    <g stroke="#1C1917" stroke-width="1">
      <path d="M286 50 Q278 50 278 42 Q278 33 289 33 Q294 25 304 27 Q315 23 319 33 Q328 34 328 42 Q328 50 320 50 Z"/>
    </g>
  </g>
</svg>
